<?xml version="1.0" standalone="no"?>
<!DOCTYPE svg PUBLIC "-//W3C//DTD SVG 20010904//EN"
 "http://www.w3.org/TR/2001/REC-SVG-20010904/DTD/svg10.dtd">
<svg version="1.0" xmlns="http://www.w3.org/2000/svg"
 width="506.000000pt" height="506.000000pt" viewBox="0 0 506.000000 506.000000"
 preserveAspectRatio="xMidYMid meet">
<metadata>
Created by potrace 1.11, written by Peter Selinger 2001-2013
</metadata>
<g transform="translate(0.000000,506.000000) scale(0.100000,-0.100000)"
fill="#000000" stroke="none">
<path d="M504 5049 c-125 -12 -229 -58 -321 -143 -85 -79 -156 -209 -169 -311
-3 -16 -5 -948 -5 -2070 -1 -1857 0 -2046 15 -2104 33 -128 117 -248 225 -320
68 -45 92 -56 173 -77 57 -14 250 -16 2103 -16 1417 1 2057 4 2095 12 209 41
393 232 426 442 3 24 6 959 6 2078 0 2268 6 2094 -68 2230 -79 145 -228 250
-392 276 -53 8 -3995 11 -4088 3z"/>
</g>
</svg>
