<svg width="9" height="16" viewBox="0 0 9 16" fill="none" xmlns="http://www.w3.org/2000/svg">
<path d="M8.28928 7.37568L2.0591 0.255608C1.91501 0.090796 1.72265 0 1.51755 0C1.31244 0 1.12009 0.090796 0.97599 0.255608L0.517181 0.779831C0.218631 1.12142 0.218631 1.6766 0.517181 2.01767L5.74881 7.99668L0.511376 13.9823C0.36728 14.1471 0.28772 14.3668 0.28772 14.6011C0.28772 14.8357 0.36728 15.0554 0.511376 15.2203L0.970186 15.7444C1.1144 15.9092 1.30664 16 1.51174 16C1.71685 16 1.9092 15.9092 2.0533 15.7444L8.28928 8.61782C8.43372 8.45248 8.51305 8.23174 8.51259 7.99707C8.51305 7.7615 8.43372 7.54088 8.28928 7.37568Z" fill="white"/>
</svg>